<svg width="3229" height="1149" viewBox="0 0 3229 1149" fill="none" xmlns="http://www.w3.org/2000/svg">
<path d="M1448.88 334.698V293.232C1448.88 288.999 1452.01 285.568 1455.87 285.568H1505.17C1509.03 285.568 1512.16 288.999 1512.16 293.232V667.613C1512.16 700.743 1505.16 727.671 1491.5 748.503C1477.81 769.369 1459.48 784.731 1436.46 794.535C1414.01 804.101 1389.06 808.918 1361.61 808.918C1336.05 808.918 1314.09 805.296 1295.71 798.171C1277.07 790.948 1261.6 781.438 1249.25 769.73C1236.9 758.02 1227.11 745.503 1219.83 732.216C1217.95 728.769 1218.81 724.309 1221.81 721.999L1262.46 690.722C1265.53 688.356 1269.76 689.075 1272.04 692.35C1276.56 698.846 1282.28 706.306 1289.19 714.736C1295.71 722.68 1304.69 729.541 1316.06 735.444C1327.62 741.444 1342.82 744.302 1361.61 744.302C1386.71 744.302 1407.48 737.806 1423.81 724.492C1439.6 711.618 1447.15 691.286 1447.15 663.822V607.864C1444.84 611.357 1442.28 615.103 1439.46 619.103C1432.09 629.571 1421.58 638.914 1407.83 646.999C1394.25 654.988 1375.98 659.165 1352.96 659.165C1324.81 659.165 1299.59 651.825 1277.27 637.231C1254.91 622.609 1237.21 601.38 1224.25 573.466C1211.48 545.967 1205 512.598 1205 473.314C1205 434.776 1211.25 401.191 1223.62 372.532C1236.17 343.442 1253.68 320.934 1276.06 304.939C1298.5 288.904 1324.41 280.829 1353.82 280.829C1376.89 280.829 1395.19 285.191 1408.8 293.533C1422.52 301.938 1433 311.511 1440.36 322.123C1443.53 326.687 1446.37 330.879 1448.88 334.698ZM1359.88 593.603C1378.81 593.603 1394.84 588.975 1407.9 579.478C1420.92 570.017 1430.76 556.358 1437.53 538.599C1444.57 520.155 1448.02 498.068 1448.02 472.367C1448.02 447.208 1444.61 424.996 1437.69 405.748C1431.01 387.138 1421.16 372.515 1408.06 361.964C1395.06 351.498 1378.98 346.392 1359.88 346.392C1339.98 346.392 1323.38 351.774 1310.18 362.826C1296.83 373.997 1286.88 389.022 1280.24 407.837C1273.4 427.225 1270.01 448.738 1270.01 472.367C1270.01 496.534 1273.44 517.88 1280.4 536.384C1287.14 554.29 1297.1 568.357 1310.37 578.515C1323.63 588.665 1340.16 593.603 1359.88 593.603Z" fill="#02B0D9"/>
<path d="M1790.49 629.042C1788.13 632.173 1785.5 635.37 1782.58 638.628C1773.94 648.264 1762.48 656.519 1748.14 663.281C1733.97 669.958 1716.7 673.383 1696.3 673.383C1674.16 673.383 1654.08 668.735 1636.04 659.514C1617.68 650.128 1603.11 636.498 1592.31 618.656C1581.51 600.816 1576.01 579.243 1576.01 553.878C1576.01 531.332 1580.23 513.057 1588.33 498.965C1596.47 484.807 1607.35 473.69 1620.97 465.624C1634.06 457.877 1648.53 452.055 1664.4 448.181C1679.81 444.419 1695.33 441.418 1710.96 439.177L1710.97 439.175C1731.21 436.323 1747.65 434.146 1760.29 432.641C1771.66 431.289 1780.01 429.168 1785.27 425.895C1788.99 423.577 1790.49 419.349 1790.49 413.604V411.708C1790.49 390.674 1785.52 374.233 1775.08 362.579C1764.61 350.884 1748.64 345.445 1727.43 345.445C1704.91 345.445 1687.19 350.58 1674.4 361.384C1661.59 372.211 1652.5 383.691 1647.29 395.98C1645.77 399.573 1642 401.303 1638.59 399.97L1590.16 381.014C1588.35 380.303 1586.88 378.8 1586.11 376.861C1585.33 374.923 1585.33 372.721 1586.09 370.777C1595.25 347.349 1607.57 329.118 1622.91 315.982C1638.17 302.925 1654.86 293.786 1673 288.547C1690.83 283.397 1708.39 280.829 1725.7 280.829C1736.73 280.829 1749.43 282.241 1763.81 285.099C1778.52 288.023 1792.78 293.979 1806.58 303.001C1820.62 312.182 1832.35 325.978 1841.66 344.51C1850.77 362.657 1855.5 386.927 1855.5 417.395V657.188C1855.5 661.421 1852.37 664.853 1848.5 664.853H1797.48C1793.62 664.853 1790.49 661.421 1790.49 657.188V629.042ZM1704.08 607.821C1722.88 607.821 1738.79 603.89 1751.75 595.794C1764.49 587.836 1774.16 577.604 1780.7 565.016C1787.21 552.472 1790.49 539.285 1790.49 525.444L1790.49 487.449C1788.88 488.106 1787.14 488.736 1785.25 489.331C1777.73 491.697 1769.1 493.743 1759.35 495.456C1749.82 497.13 1740.58 498.565 1731.63 499.761C1722.79 500.942 1715.64 501.926 1710.18 502.714L1710.17 502.715C1697.38 504.544 1685.45 507.47 1674.4 511.508C1664.17 515.246 1655.89 520.751 1649.65 528.157C1643.75 535.153 1641.02 544.728 1641.02 556.721C1641.02 573.315 1646.49 585.915 1657.76 594.347C1669.9 603.437 1685.37 607.821 1704.08 607.821Z" fill="#02B0D9"/>
<path fill-rule="evenodd" clip-rule="evenodd" d="M1957.4 348.288H1910.77C1906.91 348.288 1903.78 344.856 1903.78 340.623V293.233C1903.78 289 1906.91 285.568 1910.77 285.568H1957.4V243C1957.4 220.366 1962.38 201.545 1972.08 186.456C1981.75 171.406 1994.31 160.115 2009.76 152.589C2024.93 145.202 2040.94 141.503 2057.79 141.503C2071.04 141.503 2081.84 142.721 2090.22 145.057C2098.65 147.409 2104.92 149.625 2109.06 151.641C2112.35 153.244 2114 157.324 2112.86 161.069L2098.15 209.407C2096.93 213.423 2092.97 215.593 2089.31 214.255C2086.78 213.333 2083.31 212.181 2078.9 210.799C2074.85 209.531 2069.54 208.961 2062.98 208.961C2048.63 208.961 2038.13 212.387 2031.82 220.317C2025.33 228.467 2022.41 240.521 2022.41 256.268V285.568H2089.79C2093.65 285.568 2096.78 289 2096.78 293.233V340.623C2096.78 344.856 2093.65 348.288 2089.79 348.288H2022.41V657.188C2022.41 661.421 2019.28 664.852 2015.42 664.852H1964.39C1960.53 664.852 1957.4 661.421 1957.4 657.188V348.288Z" fill="#02B0D9"/>
<path d="M2459.25 339.301V166.169H2520.76V662.938H2460.98V610.486C2457.59 616.018 2453.39 622.435 2448.35 629.734C2441.04 640.33 2430.65 649.806 2417.1 658.066C2403.63 666.278 2385.71 670.52 2363.31 670.52C2334.53 670.52 2309.14 662.473 2287.11 646.459C2265.15 630.493 2247.93 607.925 2235.53 578.694C2223.28 549.812 2217.1 515.641 2217.1 476.16C2217.1 436.994 2223.28 403.019 2235.53 374.211C2247.94 345.054 2265.23 322.561 2287.36 306.671C2309.52 290.75 2335.12 282.747 2364.17 282.747C2386.89 282.747 2404.85 287.004 2418.1 295.221C2431.44 303.489 2441.61 312.892 2448.7 323.331C2452.75 329.294 2456.26 334.617 2459.25 339.3V339.301ZM2370.23 608.791C2389.43 608.791 2405.69 603.354 2418.94 592.311C2432.33 581.154 2442.47 565.617 2449.44 545.773C2456.58 525.44 2460.11 501.915 2460.11 475.214C2460.11 448.833 2456.65 425.706 2449.65 405.844C2442.84 386.492 2432.79 371.364 2419.43 360.53C2406.15 349.766 2389.73 344.479 2370.23 344.479C2349.9 344.479 2332.96 350.053 2319.48 361.414C2305.88 372.871 2295.74 388.4 2288.97 407.944C2282.05 427.951 2278.61 450.377 2278.61 475.214C2278.61 500.371 2282.12 523.194 2289.19 543.672C2296.11 563.708 2306.34 579.645 2319.96 591.426C2333.43 603.067 2350.2 608.791 2370.23 608.791Z" fill="#383A3D"/>
<path d="M2672.11 287.487H2610.59V662.939H2672.11V287.487Z" fill="#383A3D"/>
<path fill-rule="evenodd" clip-rule="evenodd" d="M2641.78 240.239C2629.96 240.239 2619.82 235.817 2611.34 226.996C2602.73 218.035 2598.46 207.246 2598.46 194.663C2598.46 182.079 2602.73 171.29 2611.34 162.329C2619.82 153.508 2629.96 149.086 2641.78 149.086C2653.6 149.086 2663.74 153.508 2672.22 162.329C2680.83 171.29 2685.1 182.079 2685.1 194.663C2685.1 207.246 2680.83 218.035 2672.22 226.996C2663.74 235.817 2653.6 240.239 2641.78 240.239Z" fill="#383A3D"/>
<path d="M2983.33 340.704V287.487H3043.11V667.616C3043.11 700.282 3036.25 726.847 3022.78 747.387C3009.29 767.953 2991.21 783.088 2968.53 792.752C2946.26 802.236 2921.53 807.004 2894.31 807.004C2868.98 807.004 2847.21 803.429 2828.99 796.368C2810.58 789.232 2795.3 779.848 2783.1 768.284C2770.9 756.717 2761.22 744.357 2754.03 731.232L2751.52 726.644L2800.29 689.116L2803.35 693.513C2807.89 700.045 2813.64 707.545 2820.59 716.02C2827.24 724.13 2836.4 731.151 2848.01 737.178C2859.76 743.278 2875.21 746.221 2894.31 746.221C2919.84 746.221 2940.94 739.572 2957.55 726.032C2973.76 712.823 2981.6 692.005 2981.6 663.824V601.856C2978.56 606.655 2974.95 612.015 2970.78 617.934C2963.54 628.214 2953.2 637.373 2939.7 645.313C2926.33 653.181 2908.33 657.252 2885.66 657.252C2857.85 657.252 2832.92 650.009 2810.87 635.588C2788.78 621.147 2771.31 600.17 2758.5 572.6C2745.85 545.341 2739.45 512.258 2739.45 473.317C2739.45 435.093 2745.63 401.779 2757.9 373.354C2770.3 344.606 2787.59 322.354 2809.72 306.546C2831.88 290.71 2857.47 282.748 2886.52 282.748C2909.23 282.748 2927.25 286.996 2940.65 295.208C2954.12 303.467 2964.44 312.858 2971.67 323.285C2976.24 329.87 2980.12 335.677 2983.33 340.704ZM2892.58 595.521C2911.89 595.521 2928.24 590.767 2941.57 581.078C2954.86 571.415 2964.92 557.478 2971.84 539.341C2978.96 520.69 2982.46 498.359 2982.46 472.369C2982.46 446.944 2979 424.5 2972.02 405.049C2965.2 386.076 2955.15 371.179 2941.79 360.422C2928.51 349.73 2912.09 344.478 2892.58 344.478C2872.24 344.478 2855.31 350.016 2841.82 361.306C2828.22 372.686 2818.07 387.983 2811.31 407.149C2804.4 426.744 2800.96 448.487 2800.96 472.369C2800.96 496.813 2804.45 518.401 2811.49 537.117C2818.36 555.384 2828.53 569.725 2842.07 580.089C2855.6 590.446 2872.45 595.521 2892.58 595.521Z" fill="#383A3D"/>
<path d="M3187.54 287.487H3126.03V662.939H3187.54V287.487Z" fill="#383A3D"/>
<path fill-rule="evenodd" clip-rule="evenodd" d="M3157.21 240.239C3145.4 240.239 3135.25 235.817 3126.78 226.996C3118.17 218.035 3113.9 207.246 3113.9 194.663C3113.9 182.079 3118.17 171.29 3126.78 162.329C3135.25 153.508 3145.4 149.086 3157.21 149.086C3169.03 149.086 3179.17 153.508 3187.65 162.329C3196.26 171.29 3200.53 182.079 3200.53 194.663C3200.53 207.246 3196.26 218.035 3187.65 226.996C3179.17 235.817 3169.03 240.239 3157.21 240.239Z" fill="#383A3D"/>
<path fill-rule="evenodd" clip-rule="evenodd" d="M790.869 838.581C707.562 937.401 588.335 999.32 456.016 999.32C204.425 999.32 0.165283 775.463 0.165283 499.733C0.165283 224.003 204.425 0.145264 456.016 0.145264C618.832 0.145264 761.826 93.8959 842.466 234.786H455.812C453.723 234.786 451.667 234.944 449.655 235.251C319.352 238.953 214.606 356.042 214.606 499.733C214.606 645.754 314.974 759.15 448.212 759.15C523.508 759.15 568.19 736.575 596.766 687.767C618.756 650.209 616.138 625.052 601.937 600.342C577.178 557.262 451.34 441.713 448.212 429.288H849.492C849.492 429.288 879.229 396.66 891.238 383.483C892.549 382.045 894.327 381.236 896.182 381.235C898.037 381.234 899.816 382.04 901.128 383.477C924.661 409.236 1025.08 519.164 1048.62 544.923C1051.35 547.915 1051.35 552.767 1048.62 555.762C1012.52 595.372 790.869 838.581 790.869 838.581V838.581Z" fill="#01BDDF"/>
<path fill-rule="evenodd" clip-rule="evenodd" d="M0.169778 502.029C0.169778 502.028 0.169778 502.026 0.169778 502.024L2.26199 499.729C2.26199 500.339 2.04127 500.925 1.64767 501.356C1.25575 501.786 0.724092 502.028 0.169778 502.029ZM2.26199 499.729V499.593L0.168945 501.883L2.26199 499.59C2.33164 225.194 205.625 2.44421 456.015 2.44421C616.722 2.44421 758.028 94.2058 838.654 232.487H455.811C453.659 232.487 451.542 232.648 449.468 232.958C318.102 236.757 212.507 354.837 212.507 499.733C212.507 647.056 313.784 761.449 448.211 761.449C524.438 761.449 569.601 738.42 598.53 689.009C621.138 650.394 618.311 624.521 603.71 599.117C583.855 564.57 501.752 484.96 468.086 448.135C463.108 442.691 459.203 438.197 456.744 434.94C456.444 434.543 456.166 434.171 455.913 433.823C492.114 433.33 784.572 429.412 844.068 430.849C846.382 430.905 848.511 431.006 850.193 431.104C817.669 468.722 522.662 809.099 426.883 889.895C377.706 931.379 308.522 960.387 246.568 940.771C101.47 857.794 2.30983 691.355 2.26115 499.731L2.26199 499.729Z" fill="url(#paint0_linear_2_133)"/>
<path d="M1185.76 898.545H1210.69L1248.68 964.668H1250.25L1288.24 898.545H1313.17L1260.4 986.898V1044H1238.53V986.898L1185.76 898.545ZM1331.34 1044H1308.04L1360.39 898.545H1385.74L1438.08 1044H1414.79L1373.67 924.966H1372.53L1331.34 1044ZM1335.24 987.04H1410.81V1005.51H1335.24V987.04ZM1455.33 1044V1029.37L1531.82 917.438H1454.69V898.545H1558.66V913.176L1482.17 1025.11H1559.3V1044H1455.33ZM1608.77 898.545V1044H1586.82V898.545H1608.77ZM1640.73 1044V898.545H1662.68V1025.11H1728.59V1044H1640.73ZM1775.57 898.545V1044H1753.62V898.545H1775.57ZM1807.53 898.545H1834.16L1880.47 1011.61H1882.17L1928.48 898.545H1955.11V1044H1934.23V938.744H1932.88L1889.98 1043.79H1872.65L1829.76 938.673H1828.41V1044H1807.53V898.545ZM2039.95 1044V898.545H2061.89V961.756H2134.41V898.545H2156.43V1044H2134.41V980.577H2061.89V1044H2039.95ZM2210.33 898.545V1044H2188.39V898.545H2210.33ZM2199.39 881.713C2195.7 881.713 2192.53 880.482 2189.88 878.02C2187.27 875.51 2185.97 872.527 2185.97 869.071C2185.97 865.567 2187.27 862.584 2189.88 860.122C2192.53 857.613 2195.7 856.358 2199.39 856.358C2203.09 856.358 2206.24 857.613 2208.84 860.122C2211.49 862.584 2212.82 865.567 2212.82 869.071C2212.82 872.527 2211.49 875.51 2208.84 878.02C2206.24 880.482 2203.09 881.713 2199.39 881.713ZM2238.53 1044V1029.37L2315.02 917.438H2237.89V898.545H2341.87V913.176L2265.38 1025.11H2342.51V1044H2238.53ZM2370.03 898.545H2396.66L2442.97 1011.61H2444.67L2490.98 898.545H2517.61V1044H2496.73V938.744H2495.38L2452.48 1043.79H2435.15L2392.26 938.673H2390.91V1044H2370.03V898.545ZM2549.52 1044V898.545H2640.71V917.438H2571.47V961.756H2635.95V980.577H2571.47V1025.11H2641.56V1044H2549.52ZM2662.85 917.438V898.545H2775.42V917.438H2730.04V1044H2708.17V917.438H2662.85ZM2800.3 1044V898.545H2822.25V1025.11H2888.16V1044H2800.3ZM2913.19 1044V898.545H3004.38V917.438H2935.14V961.756H2999.63V980.577H2935.14V1025.11H3005.24V1044H2913.19ZM3033.7 1044V898.545H3085.55C3096.81 898.545 3106.17 900.487 3113.6 904.369C3121.08 908.252 3126.67 913.626 3130.36 920.491C3134.05 927.31 3135.9 935.193 3135.9 944.142C3135.9 953.044 3134.03 960.88 3130.29 967.651C3126.6 974.374 3121.01 979.606 3113.53 983.347C3106.09 987.087 3096.74 988.957 3085.47 988.957H3046.2V970.065H3083.49C3090.59 970.065 3096.36 969.047 3100.82 967.011C3105.31 964.975 3108.6 962.016 3110.69 958.134C3112.77 954.251 3113.81 949.587 3113.81 944.142C3113.81 938.65 3112.75 933.891 3110.62 929.866C3108.53 925.842 3105.24 922.764 3100.74 920.634C3096.29 918.455 3090.45 917.366 3083.2 917.366H3055.64V1044H3033.7ZM3105.5 978.375L3141.44 1044H3116.44L3081.21 978.375H3105.5ZM3184.55 898.545V1044H3162.61V898.545H3184.55ZM3173.61 881.713C3169.92 881.713 3166.75 880.482 3164.1 878.02C3161.49 875.51 3160.19 872.527 3160.19 869.071C3160.19 865.567 3161.49 862.584 3164.1 860.122C3166.75 857.613 3169.92 856.358 3173.61 856.358C3177.31 856.358 3180.46 857.613 3183.06 860.122C3185.71 862.584 3187.04 865.567 3187.04 869.071C3187.04 872.527 3185.71 875.51 3183.06 878.02C3180.46 880.482 3177.31 881.713 3173.61 881.713Z" fill="#383A3D"/>
<defs>
<linearGradient id="paint0_linear_2_133" x1="-468.966" y1="-461.804" x2="1285.86" y2="1141.3" gradientUnits="userSpaceOnUse">
<stop stop-color="#02B0D9"/>
<stop offset="0.64" stop-color="#02A5CB"/>
<stop offset="0.83" stop-color="#0187A6"/>
<stop offset="1" stop-color="#00657C"/>
</linearGradient>
</defs>
</svg>
